<svg width="91" height="91" viewBox="0 0 91 91" fill="none" xmlns="http://www.w3.org/2000/svg">
<mask id="mask0_108_3" style="mask-type:alpha" maskUnits="userSpaceOnUse" x="0" y="0" width="91" height="91">
<rect x="0.0942383" width="90.0941" height="90.0941" fill="#D9D9D9"/>
</mask>
<g mask="url(#mask0_108_3)">
<path d="M33.8795 67.5706C31.8148 67.5706 30.0474 66.8354 28.5771 65.3652C27.1068 63.8949 26.3716 62.1274 26.3716 60.0627V15.0157C26.3716 12.951 27.1068 11.1836 28.5771 9.71327C30.0474 8.24299 31.8148 7.50784 33.8795 7.50784H67.6648C69.7294 7.50784 71.4969 8.24299 72.9672 9.71327C74.4375 11.1836 75.1726 12.951 75.1726 15.0157V60.0627C75.1726 62.1274 74.4375 63.8949 72.9672 65.3652C71.4969 66.8354 69.7294 67.5706 67.6648 67.5706H33.8795ZM33.8795 60.0627H67.6648V15.0157H33.8795V60.0627ZM18.8638 82.5863C16.7991 82.5863 15.0317 81.8511 13.5614 80.3808C12.0911 78.9106 11.356 77.1431 11.356 75.0784V22.5235H18.8638V75.0784H60.1569V82.5863H18.8638Z" fill="white"/>
</g>
</svg>
