<svg width="91" height="91" viewBox="0 0 91 91" fill="none" xmlns="http://www.w3.org/2000/svg">
<mask id="mask0_108_9" style="mask-type:alpha" maskUnits="userSpaceOnUse" x="0" y="0" width="91" height="91">
<rect width="90.0941" height="90.0941" fill="#D9D9D9"/>
</mask>
<g mask="url(#mask0_108_9)">
<path d="M52.5549 77.8001V70.1045C58.1857 68.4778 62.7217 65.3496 66.1628 60.7197C69.6039 56.0899 71.3245 50.8344 71.3245 44.9533C71.3245 39.0721 69.6039 33.8166 66.1628 29.1868C62.7217 24.557 58.1857 21.4287 52.5549 19.802V12.1064C60.313 13.8583 66.6321 17.7843 71.5122 23.8844C76.3923 29.9845 78.8323 37.0075 78.8323 44.9533C78.8323 52.8991 76.3923 59.922 71.5122 66.0221C66.6321 72.1223 60.313 76.0482 52.5549 77.8001ZM11.2617 56.3089V33.7853H26.2774L45.047 15.0157V75.0785L26.2774 56.3089H11.2617ZM52.5549 60.0628V29.8437C55.4954 31.2202 57.7947 33.2848 59.4527 36.0377C61.1107 38.7906 61.9397 41.7937 61.9397 45.0471C61.9397 48.2379 61.1107 51.1942 59.4527 53.9157C57.7947 56.6373 55.4954 58.6864 52.5549 60.0628ZM37.5392 33.2223L29.4682 41.2932H18.7696V48.801H29.4682L37.5392 56.872V33.2223Z" fill="white"/>
</g>
</svg>
